{
	"asset":{
		"generator":"Khronos glTF Blender I/O v4.0.44",
		"version":"2.0"
	},
	"extensionsUsed":[
		"KHR_materials_specular",
		"KHR_materials_ior"
	],
	"scene":0,
	"scenes":[
		{
			"name":"Scene",
			"nodes":[
				0
			]
		}
	],
	"nodes":[
		{
			"mesh":0,
			"name":"test10Low.002",
			"rotation":[
				0.70710688829422,
				0,
				0,
				0.7071066498756409
			]
		}
	],
	"materials":[
		{
			"doubleSided":true,
			"extensions":{
				"KHR_materials_specular":{
					"specularFactor":0
				},
				"KHR_materials_ior":{
					"ior":1.4500000476837158
				}
			},
			"name":"test10Low.001",
			"pbrMetallicRoughness":{
				"baseColorTexture":{
					"index":0
				},
				"metallicFactor":0
			}
		}
	],
	"meshes":[
		{
			"name":"test10Low.002",
			"primitives":[
				{
					"attributes":{
						"POSITION":0,
						"NORMAL":1,
						"TEXCOORD_0":2
					},
					"indices":3,
					"material":0
				}
			]
		}
	],
	"textures":[
		{
			"sampler":0,
			"source":0
		}
	],
	"images":[
		{
			"mimeType":"image/png",
			"name":"\u0421\u0430\u043b\u0430\u0442Final",
			"uri":"%D0%A1%D0%B0%D0%BB%D0%B0%D1%82Final.png"
		}
	],
	"accessors":[
		{
			"bufferView":0,
			"componentType":5126,
			"count":19702,
			"max":[
				0.937954843044281,
				0.9321605563163757,
				-1.3232231140136719e-05
			],
			"min":[
				-0.9231405854225159,
				-0.92893385887146,
				-0.7189391851425171
			],
			"type":"VEC3"
		},
		{
			"bufferView":1,
			"componentType":5126,
			"count":19702,
			"type":"VEC3"
		},
		{
			"bufferView":2,
			"componentType":5126,
			"count":19702,
			"type":"VEC2"
		},
		{
			"bufferView":3,
			"componentType":5123,
			"count":91989,
			"type":"SCALAR"
		}
	],
	"bufferViews":[
		{
			"buffer":0,
			"byteLength":236424,
			"byteOffset":0,
			"target":34962
		},
		{
			"buffer":0,
			"byteLength":236424,
			"byteOffset":236424,
			"target":34962
		},
		{
			"buffer":0,
			"byteLength":157616,
			"byteOffset":472848,
			"target":34962
		},
		{
			"buffer":0,
			"byteLength":183978,
			"byteOffset":630464,
			"target":34963
		}
	],
	"samplers":[
		{
			"magFilter":9729,
			"minFilter":9987
		}
	],
	"buffers":[
		{
			"byteLength":814444,
			"uri":"Salad.bin"
		}
	]
}
