{
	"asset":{
		"generator":"Khronos glTF Blender I/O v4.0.44",
		"version":"2.0"
	},
	"extensionsUsed":[
		"KHR_materials_specular",
		"KHR_materials_ior"
	],
	"scene":0,
	"scenes":[
		{
			"name":"Scene",
			"nodes":[
				15
			]
		}
	],
	"nodes":[
		{
			"mesh":0,
			"name":"3.001_M2_0"
		},
		{
			"children":[
				0
			],
			"name":"3.001",
			"scale":[
				18.398099899291992,
				18.398099899291992,
				18.398099899291992
			],
			"translation":[
				-7.5371503829956055,
				-202.32057189941406,
				309.1474609375
			]
		},
		{
			"name":"Node_15"
		},
		{
			"children":[
				2
			],
			"name":"Camera",
			"rotation":[
				-0.21255725622177124,
				0.9047970175743103,
				-0.08438936620950699,
				0.3592217266559601
			],
			"scale":[
				100.00000762939453,
				100.00000762939453,
				100
			],
			"translation":[
				748.1131591796875,
				534.3665161132812,
				650.7639770507812
			]
		},
		{
			"name":"Node_5"
		},
		{
			"children":[
				4
			],
			"name":"Camera.001",
			"rotation":[
				-0.21255727112293243,
				0.9047970175743103,
				-0.0843893364071846,
				0.3592216968536377
			],
			"scale":[
				99.99999237060547,
				100,
				100
			],
			"translation":[
				643.687744140625,
				492.4759826660156,
				-677.0808715820312
			]
		},
		{
			"name":"Node_13"
		},
		{
			"children":[
				6
			],
			"name":"Node_12",
			"rotation":[
				0.70710688829422,
				0,
				0,
				0.7071066498756409
			]
		},
		{
			"children":[
				7
			],
			"name":"Lamp",
			"rotation":[
				0.16907571256160736,
				0.7558803558349609,
				-0.27217134833335876,
				0.5709474682807922
			],
			"scale":[
				100.00000762939453,
				100,
				100
			],
			"translation":[
				407.6245422363281,
				590.38623046875,
				-100.54539489746094
			]
		},
		{
			"name":"Node_8"
		},
		{
			"children":[
				9
			],
			"name":"Node_7",
			"rotation":[
				0.70710688829422,
				0,
				0,
				0.7071066498756409
			]
		},
		{
			"children":[
				10
			],
			"name":"Lamp.001",
			"rotation":[
				0.16907574236392975,
				0.7558803558349609,
				-0.27217134833335876,
				0.570947527885437
			],
			"scale":[
				99.99999237060547,
				100.00000762939453,
				100
			],
			"translation":[
				303.19915771484375,
				548.49560546875,
				-1428.39013671875
			]
		},
		{
			"children":[
				1,
				3,
				5,
				8,
				11
			],
			"name":"RootNode"
		},
		{
			"children":[
				12
			],
			"name":"bd313c22f1884e2e96c1ca386f9531bf.fbx",
			"rotation":[
				0.70710688829422,
				0,
				0,
				0.7071066498756409
			]
		},
		{
			"children":[
				13
			],
			"name":"RootNode (model correction matrix)"
		},
		{
			"children":[
				14
			],
			"name":"RootNode (gltf orientation matrix)",
			"rotation":[
				-0.70710688829422,
				0,
				0,
				0.7071066498756409
			]
		}
	],
	"materials":[
		{
			"doubleSided":true,
			"extensions":{
				"KHR_materials_specular":{
					"specularFactor":0
				},
				"KHR_materials_ior":{
					"ior":1.4500000476837158
				}
			},
			"name":"test10Low.001",
			"pbrMetallicRoughness":{
				"baseColorTexture":{
					"index":0
				},
				"metallicFactor":0
			}
		}
	],
	"meshes":[
		{
			"name":"3.001_M2_0.001",
			"primitives":[
				{
					"attributes":{
						"POSITION":0,
						"NORMAL":1,
						"TEXCOORD_0":2
					},
					"indices":3,
					"material":0
				}
			]
		}
	],
	"textures":[
		{
			"sampler":0,
			"source":0
		}
	],
	"images":[
		{
			"mimeType":"image/png",
			"name":"\u0421\u0430\u043b\u0430\u0442Final",
			"uri":"%D0%A1%D0%B0%D0%BB%D0%B0%D1%82Final.png"
		}
	],
	"accessors":[
		{
			"bufferView":0,
			"componentType":5126,
			"count":19702,
			"max":[
				5.621363639831543,
				1.7993515729904175,
				5.724952697753906
			],
			"min":[
				-5.485208988189697,
				-2.4909775257110596,
				-5.3815484046936035
			],
			"type":"VEC3"
		},
		{
			"bufferView":1,
			"componentType":5126,
			"count":19702,
			"type":"VEC3"
		},
		{
			"bufferView":2,
			"componentType":5126,
			"count":19702,
			"type":"VEC2"
		},
		{
			"bufferView":3,
			"componentType":5123,
			"count":91989,
			"type":"SCALAR"
		}
	],
	"bufferViews":[
		{
			"buffer":0,
			"byteLength":236424,
			"byteOffset":0,
			"target":34962
		},
		{
			"buffer":0,
			"byteLength":236424,
			"byteOffset":236424,
			"target":34962
		},
		{
			"buffer":0,
			"byteLength":157616,
			"byteOffset":472848,
			"target":34962
		},
		{
			"buffer":0,
			"byteLength":183978,
			"byteOffset":630464,
			"target":34963
		}
	],
	"samplers":[
		{
			"magFilter":9729,
			"minFilter":9987
		}
	],
	"buffers":[
		{
			"byteLength":814444,
			"uri":"Salad.bin"
		}
	]
}
